<mxfile host="app.diagrams.net" modified="2023-06-27T16:24:41.586Z" agent="Mozilla/5.0 (X11; Linux x86_64; rv:102.0) Gecko/20100101 Firefox/102.0" etag="Io0L3ddPDJhAZT1NbaqW" version="21.5.1" type="device">
  <diagram name="Basic" id="xgcHMJwPYGSGIGD9tkLh">
    <mxGraphModel dx="928" dy="483" grid="1" gridSize="10" guides="1" tooltips="1" connect="1" arrows="1" fold="1" page="1" pageScale="1" pageWidth="1169" pageHeight="827" math="0" shadow="0">
      <root>
        <mxCell id="0" />
        <mxCell id="1" parent="0" />
        <mxCell id="vsgwDxmwbNstEsCSUDda-1" value="Application" style="swimlane;startSize=40;fontFamily=Helvetica;fontSize=14;align=center;fillColor=#cce5ff;strokeColor=#36393d;container=0;glass=0;" parent="1" vertex="1">
          <mxGeometry x="85" y="280" width="350" height="170" as="geometry">
            <mxRectangle x="260" y="160" width="110" height="30" as="alternateBounds" />
          </mxGeometry>
        </mxCell>
        <mxCell id="vsgwDxmwbNstEsCSUDda-2" value="User Interface" style="rounded=1;whiteSpace=wrap;html=1;dashed=1;fillColor=#eeeeee;strokeColor=#36393d;" parent="vsgwDxmwbNstEsCSUDda-1" vertex="1">
          <mxGeometry x="10" y="50" width="330" height="30" as="geometry" />
        </mxCell>
        <mxCell id="vsgwDxmwbNstEsCSUDda-3" value="Native Functionality" style="rounded=1;whiteSpace=wrap;html=1;dashed=1;fillColor=#eeeeee;strokeColor=#36393d;" parent="vsgwDxmwbNstEsCSUDda-1" vertex="1">
          <mxGeometry x="10" y="90" width="330" height="30" as="geometry" />
        </mxCell>
        <mxCell id="vsgwDxmwbNstEsCSUDda-4" value="Plugin Infrastructure" style="rounded=1;whiteSpace=wrap;html=1;fillColor=#FFD966;strokeColor=#36393d;" parent="vsgwDxmwbNstEsCSUDda-1" vertex="1">
          <mxGeometry x="10" y="130" width="330" height="30" as="geometry" />
        </mxCell>
        <mxCell id="XzGCXTQwfEr2VS3mhiHZ-12" value="" style="group" parent="1" vertex="1" connectable="0">
          <mxGeometry x="123.43145750507621" y="87.5714575050762" width="273.1370849898476" height="113.13708498984761" as="geometry" />
        </mxCell>
        <mxCell id="iFnmHtJnUcWWujWedrZy-1" value="" style="group" parent="XzGCXTQwfEr2VS3mhiHZ-12" vertex="1" connectable="0">
          <mxGeometry x="-1.4210854715202004e-14" y="7.105427357601002e-15" width="273.1370849898476" height="113.13708498984761" as="geometry" />
        </mxCell>
        <mxCell id="vsgwDxmwbNstEsCSUDda-6" value="Plugin A" style="rounded=1;whiteSpace=wrap;html=1;verticalAlign=middle;rotation=-45;fillColor=#cdeb8b;strokeColor=#36393d;" parent="iFnmHtJnUcWWujWedrZy-1" vertex="1">
          <mxGeometry x="-3.431457505076196" y="36.5685424949238" width="120" height="40" as="geometry" />
        </mxCell>
        <mxCell id="XzGCXTQwfEr2VS3mhiHZ-2" value="Plugin B" style="rounded=1;whiteSpace=wrap;html=1;verticalAlign=middle;rotation=-45;fillColor=#cdeb8b;strokeColor=#36393d;" parent="iFnmHtJnUcWWujWedrZy-1" vertex="1">
          <mxGeometry x="76.5685424949238" y="36.5685424949238" width="120" height="40" as="geometry" />
        </mxCell>
        <mxCell id="XzGCXTQwfEr2VS3mhiHZ-3" value="Plugin C" style="rounded=1;whiteSpace=wrap;html=1;verticalAlign=middle;rotation=-45;fillColor=#cdeb8b;strokeColor=#36393d;" parent="iFnmHtJnUcWWujWedrZy-1" vertex="1">
          <mxGeometry x="156.5685424949238" y="36.5685424949238" width="120" height="40" as="geometry" />
        </mxCell>
        <mxCell id="IATk7YaGTr4nxunSOgzV-2" style="edgeStyle=orthogonalEdgeStyle;rounded=0;orthogonalLoop=1;jettySize=auto;html=1;exitX=0;exitY=0.5;exitDx=0;exitDy=0;exitPerimeter=0;" parent="1" source="XzGCXTQwfEr2VS3mhiHZ-13" edge="1">
          <mxGeometry relative="1" as="geometry">
            <mxPoint x="260" y="270" as="targetPoint" />
          </mxGeometry>
        </mxCell>
        <mxCell id="XzGCXTQwfEr2VS3mhiHZ-13" value="" style="strokeWidth=1;html=1;shape=mxgraph.flowchart.annotation_2;align=left;labelPosition=right;pointerEvents=1;rotation=-90;" parent="1" vertex="1">
          <mxGeometry x="235" y="100" width="50" height="270" as="geometry" />
        </mxCell>
        <mxCell id="LvFN6HpY_MVmP3MI9pU1-1" value="Host Application" style="swimlane;startSize=40;fontFamily=Helvetica;fontSize=14;align=center;fillColor=#cce5ff;strokeColor=#36393d;" parent="1" vertex="1">
          <mxGeometry x="520" y="40" width="400" height="200" as="geometry">
            <mxRectangle x="80" y="240" width="110" height="30" as="alternateBounds" />
          </mxGeometry>
        </mxCell>
        <mxCell id="LvFN6HpY_MVmP3MI9pU1-2" value="User Interface" style="rounded=1;whiteSpace=wrap;html=1;dashed=1;fillColor=#eeeeee;strokeColor=#36393d;" parent="LvFN6HpY_MVmP3MI9pU1-1" vertex="1">
          <mxGeometry x="10" y="65" width="190" height="30" as="geometry" />
        </mxCell>
        <mxCell id="LvFN6HpY_MVmP3MI9pU1-3" value="Native Functionality" style="rounded=1;whiteSpace=wrap;html=1;dashed=1;fillColor=#eeeeee;strokeColor=#36393d;" parent="LvFN6HpY_MVmP3MI9pU1-1" vertex="1">
          <mxGeometry x="10" y="105" width="190" height="30" as="geometry" />
        </mxCell>
        <mxCell id="LvFN6HpY_MVmP3MI9pU1-4" value="Plugin Infrastructure" style="rounded=1;whiteSpace=wrap;html=1;fillColor=#FFD966;strokeColor=#36393d;" parent="LvFN6HpY_MVmP3MI9pU1-1" vertex="1">
          <mxGeometry x="10" y="145" width="190" height="30" as="geometry" />
        </mxCell>
        <mxCell id="LvFN6HpY_MVmP3MI9pU1-5" value="Local Modules" style="swimlane;startSize=30;fontFamily=Helvetica;fontSize=12;align=center;container=0;gradientDirection=north;fontStyle=1;fillColor=#B8EDE4;strokeColor=#36393d;" parent="LvFN6HpY_MVmP3MI9pU1-1" vertex="1">
          <mxGeometry x="238.5" y="50" width="151.5" height="140" as="geometry">
            <mxRectangle x="260" y="160" width="110" height="30" as="alternateBounds" />
          </mxGeometry>
        </mxCell>
        <mxCell id="LvFN6HpY_MVmP3MI9pU1-6" value="" style="group" parent="LvFN6HpY_MVmP3MI9pU1-5" vertex="1" connectable="0">
          <mxGeometry x="11.75" y="40" width="128" height="38" as="geometry" />
        </mxCell>
        <mxCell id="LvFN6HpY_MVmP3MI9pU1-7" value="" style="rounded=1;whiteSpace=wrap;html=1;fillColor=#EBFFFF;strokeColor=#36393d;" parent="LvFN6HpY_MVmP3MI9pU1-6" vertex="1">
          <mxGeometry width="120" height="30" as="geometry" />
        </mxCell>
        <mxCell id="LvFN6HpY_MVmP3MI9pU1-8" value="" style="rounded=1;whiteSpace=wrap;html=1;fillColor=#EBFFFF;strokeColor=#36393d;" parent="LvFN6HpY_MVmP3MI9pU1-6" vertex="1">
          <mxGeometry x="4" y="4" width="120" height="30" as="geometry" />
        </mxCell>
        <mxCell id="LvFN6HpY_MVmP3MI9pU1-9" value="App Modules" style="rounded=1;whiteSpace=wrap;html=1;fillColor=#EBFFFF;strokeColor=#36393d;" parent="LvFN6HpY_MVmP3MI9pU1-6" vertex="1">
          <mxGeometry x="8" y="8" width="120" height="30" as="geometry" />
        </mxCell>
        <mxCell id="LvFN6HpY_MVmP3MI9pU1-10" value="" style="group" parent="LvFN6HpY_MVmP3MI9pU1-5" vertex="1" connectable="0">
          <mxGeometry x="11.75" y="90" width="128" height="38" as="geometry" />
        </mxCell>
        <mxCell id="LvFN6HpY_MVmP3MI9pU1-11" value="" style="rounded=1;whiteSpace=wrap;html=1;fillColor=#EBFFFF;strokeColor=#36393d;" parent="LvFN6HpY_MVmP3MI9pU1-10" vertex="1">
          <mxGeometry width="120" height="30" as="geometry" />
        </mxCell>
        <mxCell id="LvFN6HpY_MVmP3MI9pU1-12" value="" style="rounded=1;whiteSpace=wrap;html=1;fillColor=#EBFFFF;strokeColor=#36393d;" parent="LvFN6HpY_MVmP3MI9pU1-10" vertex="1">
          <mxGeometry x="4" y="4" width="120" height="30" as="geometry" />
        </mxCell>
        <mxCell id="LvFN6HpY_MVmP3MI9pU1-13" value="Shared Modules" style="rounded=1;whiteSpace=wrap;html=1;fillColor=#EBFFFF;strokeColor=#36393d;" parent="LvFN6HpY_MVmP3MI9pU1-10" vertex="1">
          <mxGeometry x="8" y="8" width="120" height="30" as="geometry" />
        </mxCell>
        <mxCell id="LvFN6HpY_MVmP3MI9pU1-14" value="" style="shape=curlyBracket;whiteSpace=wrap;html=1;rounded=1;flipH=1;labelPosition=right;verticalLabelPosition=middle;align=left;verticalAlign=middle;" parent="LvFN6HpY_MVmP3MI9pU1-1" vertex="1">
          <mxGeometry x="210" y="65" width="20" height="110" as="geometry" />
        </mxCell>
        <mxCell id="EdaQ9nylb8bEmlkTCKmb-1" value="Dynamic Plugin" style="swimlane;startSize=40;fontFamily=Helvetica;fontSize=14;align=center;fillColor=#cdeb8b;strokeColor=#36393d;" parent="1" vertex="1">
          <mxGeometry x="520" y="280" width="400" height="190" as="geometry">
            <mxRectangle x="80" y="240" width="110" height="30" as="alternateBounds" />
          </mxGeometry>
        </mxCell>
        <mxCell id="EdaQ9nylb8bEmlkTCKmb-2" value="Bootstrap Code (generated)" style="rounded=1;whiteSpace=wrap;html=1;fillColor=#FFD966;strokeColor=#36393d;" parent="EdaQ9nylb8bEmlkTCKmb-1" vertex="1">
          <mxGeometry x="10" y="50" width="190" height="30" as="geometry" />
        </mxCell>
        <mxCell id="EdaQ9nylb8bEmlkTCKmb-3" value="Extension Code" style="rounded=1;whiteSpace=wrap;html=1;fillColor=#FFD966;strokeColor=#36393d;dashed=1;" parent="EdaQ9nylb8bEmlkTCKmb-1" vertex="1">
          <mxGeometry x="10" y="90" width="190" height="30" as="geometry" />
        </mxCell>
        <mxCell id="EdaQ9nylb8bEmlkTCKmb-4" value="Local Modules" style="swimlane;startSize=30;fontFamily=Helvetica;fontSize=12;align=center;container=0;gradientDirection=north;fontStyle=1;fillColor=#B8EDE4;strokeColor=#36393d;" parent="EdaQ9nylb8bEmlkTCKmb-1" vertex="1">
          <mxGeometry x="238.5" y="50" width="151.5" height="130" as="geometry">
            <mxRectangle x="260" y="160" width="110" height="30" as="alternateBounds" />
          </mxGeometry>
        </mxCell>
        <mxCell id="EdaQ9nylb8bEmlkTCKmb-5" value="Entry Module" style="rounded=1;whiteSpace=wrap;html=1;fillColor=#EBFFFF;strokeColor=#36393d;container=0;" parent="EdaQ9nylb8bEmlkTCKmb-4" vertex="1">
          <mxGeometry x="11.75" y="40" width="128.25" height="30" as="geometry" />
        </mxCell>
        <mxCell id="EdaQ9nylb8bEmlkTCKmb-6" value="" style="group" parent="EdaQ9nylb8bEmlkTCKmb-4" vertex="1" connectable="0">
          <mxGeometry x="11.75" y="82" width="128" height="38" as="geometry" />
        </mxCell>
        <mxCell id="EdaQ9nylb8bEmlkTCKmb-7" value="" style="rounded=1;whiteSpace=wrap;html=1;fillColor=#EBFFFF;strokeColor=#36393d;" parent="EdaQ9nylb8bEmlkTCKmb-6" vertex="1">
          <mxGeometry width="120" height="30" as="geometry" />
        </mxCell>
        <mxCell id="EdaQ9nylb8bEmlkTCKmb-8" value="" style="rounded=1;whiteSpace=wrap;html=1;fillColor=#EBFFFF;strokeColor=#36393d;" parent="EdaQ9nylb8bEmlkTCKmb-6" vertex="1">
          <mxGeometry x="4" y="4" width="120" height="30" as="geometry" />
        </mxCell>
        <mxCell id="EdaQ9nylb8bEmlkTCKmb-9" value="Exposed Modules" style="rounded=1;whiteSpace=wrap;html=1;fillColor=#EBFFFF;strokeColor=#36393d;" parent="EdaQ9nylb8bEmlkTCKmb-6" vertex="1">
          <mxGeometry x="8" y="8" width="120" height="30" as="geometry" />
        </mxCell>
        <mxCell id="EdaQ9nylb8bEmlkTCKmb-10" value="" style="shape=curlyBracket;whiteSpace=wrap;html=1;rounded=1;flipH=1;labelPosition=right;verticalLabelPosition=middle;align=left;verticalAlign=middle;" parent="EdaQ9nylb8bEmlkTCKmb-1" vertex="1">
          <mxGeometry x="210" y="50" width="20" height="70" as="geometry" />
        </mxCell>
        <mxCell id="EdaQ9nylb8bEmlkTCKmb-11" value="&lt;div&gt;Plugin&lt;/div&gt;&lt;div&gt;Metadata&lt;br&gt;&lt;/div&gt;" style="shape=card;whiteSpace=wrap;html=1;size=20;fillColor=#E5CCFF;strokeColor=#36393d;" parent="EdaQ9nylb8bEmlkTCKmb-1" vertex="1">
          <mxGeometry x="10" y="130" width="90" height="50" as="geometry" />
        </mxCell>
        <mxCell id="EdaQ9nylb8bEmlkTCKmb-12" value="&lt;div&gt;Extension&lt;/div&gt;&lt;div&gt;Declarations&lt;br&gt;&lt;/div&gt;" style="shape=card;whiteSpace=wrap;html=1;size=20;fillColor=#E5CCFF;dashed=1;" parent="EdaQ9nylb8bEmlkTCKmb-1" vertex="1">
          <mxGeometry x="110" y="130" width="90" height="50" as="geometry" />
        </mxCell>
      </root>
    </mxGraphModel>
  </diagram>
</mxfile>
